<?xml version="1.0" encoding="utf-8"?>
<svg viewBox="0 0 174 137" width="200pt" height="157.471pt" xmlns="http://www.w3.org/2000/svg">
  <g transform="matrix(0.1, 0, 0, -0.1, -13.0, 170)" fill="#f98e1b" stroke="none">
    <path d="M810 1674 c-170 -31 -305 -77 -296 -99 14 -38 28 -139 25 -189 -2 -31 -3 -56 -3 -56 1 0 37 7 80 16 119 25 172 16 316 -51 68 -32 158 -72 200 -91 l77 -33 31 42 c46 63 46 75 1 162 -48 90 -51 125 -16 209 13 33 23 61 22 62 -19 18 -370 40 -437 28z"/>
    <path d="M1309 1573 c-36 -83 -35 -101 10 -191 23 -45 41 -92 41 -104 0 -13 -11 -41 -25 -63 -59 -98 -57 -88 -25 -132 34 -47 56 -118 46 -156 -11 -45 -64 -95 -152 -143 -46 -25 -84 -49 -84 -54 0 -15 61 -60 88 -66 15 -3 32 -7 38 -9 28 -9 314 15 364 30 152 46 228 153 246 345 8 77 -12 167 -54 244 -39 72 -153 189 -236 241 -68 42 -203 105 -226 105 -6 0 -20 -21 -31 -47z"/>
    <path d="M365 1492 c-105 -86 -181 -196 -210 -307 -16 -63 -20 -165 -7 -165 5 0 19 11 32 25 27 29 79 46 112 37 13 -3 39 -15 58 -27 43 -27 230 -98 237 -91 3 3 0 27 -7 53 -11 37 -28 63 -78 111 l-64 63 12 124 c11 112 9 151 -6 208 -3 9 -8 17 -12 17 -4 0 -34 -22 -67 -48z"/>
    <path d="M601 1260 c-41 -11 -77 -22 -79 -25 -3 -3 16 -26 43 -52 43 -43 95 -129 95 -160 0 -24 19 -23 56 2 51 34 78 40 126 25 62 -18 115 -58 159 -118 62 -87 50 -117 -43 -106 -36 4 -58 3 -62 -5 -4 -6 13 -32 37 -58 24 -27 69 -86 99 -133 30 -47 62 -91 71 -99 20 -16 57 -8 106 21 l34 21 -45 12 c-95 24 -158 86 -158 156 0 43 25 69 93 98 71 31 136 79 143 106 15 61 -36 130 -123 164 -29 11 -124 53 -210 93 -183 83 -223 90 -342 58z"/>
    <path d="M227 978 c-61 -65 -64 -77 -32 -163 32 -90 91 -184 133 -213 41 -30 77 -27 144 11 58 32 198 151 198 167 0 5 -12 23 -26 40 -30 34 -91 68 -174 95 -30 10 -86 34 -125 54 -38 20 -74 37 -78 39 -4 2 -22 -11 -40 -30z"/>
    <path d="M735 938 l-47 -44 36 -53 c20 -29 36 -61 36 -72 0 -36 -42 -130 -106 -235 -75 -123 -81 -142 -61 -181 14 -26 16 -26 22 -8 17 51 31 75 99 169 41 56 88 127 106 158 30 54 31 59 16 80 -9 12 -16 41 -16 63 0 45 23 76 69 93 l24 9 -35 26 c-19 15 -49 30 -66 33 -27 5 -37 0 -77 -38z"/>
  </g>
</svg>